<svg width="128" height="128" viewBox="0 0 128 128" fill="none" xmlns="http://www.w3.org/2000/svg">
<rect x="3" y="3" width="122" height="122" rx="21" fill="#192667" stroke="#5B64AE" stroke-width="6"/>
<rect x="38" y="23" width="53" height="63" rx="3" fill="#74D5FF" stroke="#2365B3" stroke-width="2"/>
<path d="M76 22H88C90.2091 22 92 23.7909 92 26V83C92 85.2091 90.2091 87 88 87H76V22Z" fill="black" fill-opacity="0.43"/>
<path d="M11.92 94.304C11.92 93.872 12.024 93.544 12.232 93.32C12.44 93.096 12.744 92.984 13.144 92.984L19.744 108.344L19.432 109.064L19.528 109.112L26.488 92.984C26.888 92.984 27.192 93.096 27.4 93.32C27.608 93.544 27.712 93.864 27.712 94.28V110.216C27.312 110.216 27.008 110.104 26.8 109.88C26.592 109.656 26.488 109.328 26.488 108.896V96.128L26.896 95.12L26.8 95.072L20.368 109.808C20.32 109.92 20.24 110.016 20.128 110.096C20.032 110.176 19.928 110.216 19.816 110.216C19.576 110.216 19.392 110.08 19.264 109.808L12.832 95.096L12.736 95.12L13.144 96.128V108.896C13.144 109.328 13.04 109.656 12.832 109.88C12.624 110.104 12.32 110.216 11.92 110.216V94.304ZM36.1206 110.216C35.1926 110.216 34.3606 110.04 33.6246 109.688C32.9046 109.336 32.3366 108.856 31.9206 108.248C31.5206 107.64 31.3206 106.976 31.3206 106.256V101.768C31.3206 101.048 31.5206 100.384 31.9206 99.776C32.3366 99.168 32.9046 98.688 33.6246 98.336C34.3606 97.968 35.1926 97.784 36.1206 97.784C37.0486 97.784 37.8726 97.968 38.5926 98.336C39.3286 98.688 39.8966 99.168 40.2966 99.776C40.7126 100.384 40.9206 101.048 40.9206 101.768V106.256C40.9206 106.976 40.7126 107.64 40.2966 108.248C39.8966 108.856 39.3286 109.336 38.5926 109.688C37.8726 110.04 37.0486 110.216 36.1206 110.216ZM36.1206 109.208C37.2406 109.208 38.1366 108.936 38.8086 108.392C39.4966 107.832 39.8406 107.128 39.8406 106.28V101.768C39.8406 100.904 39.4966 100.192 38.8086 99.632C38.1366 99.072 37.2406 98.792 36.1206 98.792C35.0006 98.792 34.0966 99.072 33.4086 99.632C32.7366 100.192 32.4006 100.904 32.4006 101.768V106.28C32.4006 107.128 32.7366 107.832 33.4086 108.392C34.0966 108.936 35.0006 109.208 36.1206 109.208ZM48.3522 110.216C46.9122 110.216 45.7682 109.856 44.9202 109.136C44.0882 108.416 43.6722 107.44 43.6722 106.208V101.768C43.6722 100.536 44.0882 99.568 44.9202 98.864C45.7522 98.144 46.8722 97.784 48.2802 97.784C49.0962 97.784 49.8402 97.952 50.5122 98.288C51.1842 98.624 51.8162 99.144 52.4082 99.848L52.4562 99.728L51.9762 99.128V94.16C51.9762 93.376 52.3442 92.984 53.0802 92.984V108.896C53.0802 109.344 52.9842 109.68 52.7922 109.904C52.6162 110.112 52.3282 110.216 51.9282 110.216V108.824C52.0082 108.744 52.1762 108.544 52.4322 108.224L52.3842 108.128C51.8242 108.8 51.2002 109.32 50.5122 109.688C49.8242 110.04 49.1042 110.216 48.3522 110.216ZM48.3762 109.208C49.0162 109.208 49.6082 109.08 50.1522 108.824C50.7122 108.568 51.1522 108.224 51.4722 107.792C51.8082 107.344 51.9762 106.864 51.9762 106.352V101.624C51.9762 100.792 51.6402 100.112 50.9682 99.584C50.2962 99.056 49.4162 98.792 48.3282 98.792C47.2402 98.792 46.3682 99.064 45.7122 99.608C45.0722 100.136 44.7522 100.848 44.7522 101.744V106.232C44.7522 107.16 45.0722 107.888 45.7122 108.416C46.3522 108.944 47.2402 109.208 48.3762 109.208ZM61.384 110.216C59.976 110.216 58.84 109.832 57.976 109.064C57.112 108.28 56.68 107.256 56.68 105.992V102.032C56.68 101.248 56.888 100.536 57.304 99.896C57.72 99.24 58.28 98.728 58.984 98.36C59.704 97.976 60.504 97.784 61.384 97.784C62.264 97.784 63.064 97.976 63.784 98.36C64.504 98.728 65.072 99.24 65.488 99.896C65.904 100.552 66.112 101.272 66.112 102.056V103.76C66.112 103.888 66.048 104.016 65.92 104.144C65.808 104.256 65.688 104.312 65.56 104.312H57.784V106.016C57.784 107.008 58.096 107.784 58.72 108.344C59.36 108.904 60.248 109.184 61.384 109.184C62.52 109.184 63.408 108.92 64.048 108.392C64.704 107.864 65.032 107.136 65.032 106.208C65.24 106.224 65.432 106.336 65.608 106.544C65.8 106.736 65.896 106.936 65.896 107.144C65.896 107.672 65.68 108.176 65.248 108.656C64.832 109.12 64.272 109.496 63.568 109.784C62.88 110.072 62.152 110.216 61.384 110.216ZM65.008 103.256V102.056C65.008 101.112 64.672 100.344 64 99.752C63.328 99.144 62.456 98.84 61.384 98.84C60.312 98.84 59.44 99.144 58.768 99.752C58.112 100.344 57.784 101.112 57.784 102.056V103.256H65.008ZM73.4939 98.792C72.9499 98.792 72.4379 98.928 71.9579 99.2C71.4939 99.456 71.1259 99.808 70.8539 100.256C70.5819 100.704 70.4459 101.192 70.4459 101.72V109.016C70.4459 109.816 70.0779 110.216 69.3419 110.216V98.96C69.3419 98.176 69.7019 97.784 70.4219 97.784V99.296C70.2139 99.52 70.0539 99.728 69.9419 99.92L69.9899 100.016C71.0779 98.528 72.3739 97.784 73.8779 97.784C74.2939 97.784 74.6459 97.872 74.9339 98.048C75.2219 98.224 75.3659 98.448 75.3659 98.72C75.3659 98.864 75.3179 99.008 75.2219 99.152C75.0139 99.04 74.7499 98.952 74.4299 98.888C74.1099 98.824 73.7979 98.792 73.4939 98.792ZM81.3672 110.216C79.9592 110.216 78.8232 109.856 77.9592 109.136C77.1112 108.4 76.6872 107.424 76.6872 106.208C76.6872 104.976 77.1032 104 77.9352 103.28C78.7832 102.544 79.9352 102.176 81.3912 102.176C83.0872 102.176 84.4232 102.8 85.3992 104.048L85.4712 104.024C85.3112 103.8 85.1672 103.608 85.0392 103.448V101.84C85.0392 100.88 84.7512 100.144 84.1752 99.632C83.5992 99.104 82.7752 98.84 81.7032 98.84C79.8152 98.84 78.5192 99.632 77.8152 101.216C77.6552 101.072 77.5272 100.912 77.4312 100.736C77.3512 100.544 77.3112 100.368 77.3112 100.208C77.3112 99.824 77.5272 99.448 77.9592 99.08C78.3912 98.696 78.9432 98.384 79.6152 98.144C80.3032 97.904 80.9912 97.784 81.6792 97.784C83.0392 97.784 84.1192 98.152 84.9192 98.888C85.7192 99.624 86.1192 100.616 86.1192 101.864V109.016C86.1192 109.4 86.0232 109.696 85.8312 109.904C85.6392 110.112 85.3672 110.216 85.0152 110.216V108.92C85.3032 108.632 85.4712 108.424 85.5192 108.296L85.4472 108.224C84.9672 108.848 84.3672 109.336 83.6472 109.688C82.9272 110.04 82.1672 110.216 81.3672 110.216ZM81.2712 109.16C82.4392 109.16 83.3672 108.896 84.0552 108.368C84.7432 107.824 85.0872 107.104 85.0872 106.208C85.0872 105.296 84.7512 104.576 84.0792 104.048C83.4232 103.52 82.5112 103.256 81.3432 103.256C80.2552 103.256 79.3992 103.52 78.7752 104.048C78.1512 104.56 77.8392 105.28 77.8392 106.208C77.8392 107.136 78.1432 107.864 78.7512 108.392C79.3592 108.904 80.1992 109.16 81.2712 109.16ZM94.0017 98.792C93.4577 98.792 92.9457 98.928 92.4657 99.2C92.0017 99.456 91.6337 99.808 91.3617 100.256C91.0897 100.704 90.9537 101.192 90.9537 101.72V109.016C90.9537 109.816 90.5857 110.216 89.8497 110.216V98.96C89.8497 98.176 90.2097 97.784 90.9297 97.784V99.296C90.7217 99.52 90.5617 99.728 90.4497 99.92L90.4977 100.016C91.5857 98.528 92.8817 97.784 94.3857 97.784C94.8017 97.784 95.1537 97.872 95.4417 98.048C95.7297 98.224 95.8737 98.448 95.8737 98.72C95.8737 98.864 95.8257 99.008 95.7297 99.152C95.5217 99.04 95.2577 98.952 94.9377 98.888C94.6177 98.824 94.3057 98.792 94.0017 98.792ZM102.32 110.216C101.376 110.216 100.656 109.96 100.16 109.448C99.6638 108.936 99.4158 108.2 99.4158 107.24V99.056H97.4238C97.4238 98.72 97.5198 98.464 97.7118 98.288C97.9038 98.096 98.1758 98 98.5278 98H99.4158V95.384C99.4158 95 99.5118 94.704 99.7038 94.496C99.8958 94.288 100.168 94.184 100.52 94.184V98H103.712C103.712 98.32 103.616 98.576 103.424 98.768C103.232 98.96 102.976 99.056 102.656 99.056H100.52V107.216C100.52 107.936 100.656 108.448 100.928 108.752C101.216 109.056 101.688 109.208 102.344 109.208C102.568 109.208 102.816 109.168 103.088 109.088C103.36 109.008 103.6 108.904 103.808 108.776C103.872 108.888 103.904 109.048 103.904 109.256C103.904 109.512 103.744 109.736 103.424 109.928C103.12 110.12 102.752 110.216 102.32 110.216ZM110.863 110.216C109.935 110.216 109.103 110.04 108.367 109.688C107.647 109.336 107.079 108.856 106.663 108.248C106.263 107.64 106.063 106.976 106.063 106.256V101.768C106.063 101.048 106.263 100.384 106.663 99.776C107.079 99.168 107.647 98.688 108.367 98.336C109.103 97.968 109.935 97.784 110.863 97.784C111.791 97.784 112.615 97.968 113.335 98.336C114.071 98.688 114.639 99.168 115.039 99.776C115.455 100.384 115.663 101.048 115.663 101.768V106.256C115.663 106.976 115.455 107.64 115.039 108.248C114.639 108.856 114.071 109.336 113.335 109.688C112.615 110.04 111.791 110.216 110.863 110.216ZM110.863 109.208C111.983 109.208 112.879 108.936 113.551 108.392C114.239 107.832 114.583 107.128 114.583 106.28V101.768C114.583 100.904 114.239 100.192 113.551 99.632C112.879 99.072 111.983 98.792 110.863 98.792C109.743 98.792 108.839 99.072 108.151 99.632C107.479 100.192 107.143 100.904 107.143 101.768V106.28C107.143 107.128 107.479 107.832 108.151 108.392C108.839 108.936 109.743 109.208 110.863 109.208Z" fill="white"/>
<path d="M44 52H74M44 63H74M44 57.5H74M44 68.5H74M44 74H74M44 79.5H74M44 46.5H74M44 41H74M44 32.5H74" stroke="black"/>
<rect x="64.9282" y="78.6314" width="8" height="55" rx="2" transform="rotate(-150 64.9282 78.6314)" fill="#3581C8"/>
<rect x="83.9282" y="45.7321" width="8" height="2" transform="rotate(-150 83.9282 45.7321)" fill="black"/>
</svg>
